<mxfile host="Electron" agent="Mozilla/5.0 (Windows NT 10.0; Win64; x64) AppleWebKit/537.36 (KHTML, like Gecko) draw.io/24.7.17 Chrome/128.0.6613.36 Electron/32.0.1 Safari/537.36" version="24.7.17">
  <diagram id="C5RBs43oDa-KdzZeNtuy" name="Page-1">
    <mxGraphModel dx="3629" dy="669" grid="1" gridSize="10" guides="1" tooltips="1" connect="1" arrows="1" fold="1" page="1" pageScale="1" pageWidth="2339" pageHeight="3300" background="none" math="0" shadow="0">
      <root>
        <mxCell id="WIyWlLk6GJQsqaUBKTNV-0" />
        <mxCell id="WIyWlLk6GJQsqaUBKTNV-1" parent="WIyWlLk6GJQsqaUBKTNV-0" />
        <mxCell id="O1YSf6ZAfxsfMDEXohWQ-13" style="edgeStyle=orthogonalEdgeStyle;rounded=0;orthogonalLoop=1;jettySize=auto;html=1;" parent="WIyWlLk6GJQsqaUBKTNV-1" source="zkfFHV4jXpPFQw0GAbJ--0" edge="1">
          <mxGeometry relative="1" as="geometry">
            <mxPoint x="-1397" y="1440" as="targetPoint" />
          </mxGeometry>
        </mxCell>
        <mxCell id="zkfFHV4jXpPFQw0GAbJ--0" value="EstacionDeServicio" style="swimlane;fontStyle=2;align=center;verticalAlign=top;childLayout=stackLayout;horizontal=1;startSize=26;horizontalStack=0;resizeParent=1;resizeLast=0;collapsible=1;marginBottom=0;rounded=0;shadow=0;strokeWidth=1;" parent="WIyWlLk6GJQsqaUBKTNV-1" vertex="1">
          <mxGeometry x="-1530" y="1566" width="779" height="686" as="geometry">
            <mxRectangle x="230" y="140" width="160" height="26" as="alternateBounds" />
          </mxGeometry>
        </mxCell>
        <mxCell id="39gTW1AYB2WTkjp2yQIk-3" value="-&amp;nbsp;string nombre&lt;br&gt;&lt;div&gt;&lt;span style=&quot;background-color: initial;&quot;&gt;-&lt;/span&gt;&lt;span style=&quot;background-color: initial;&quot;&gt;&amp;nbsp;&lt;/span&gt;int codigoIdentificador&lt;/div&gt;&lt;div&gt;&lt;span style=&quot;background-color: initial;&quot;&gt;-&lt;/span&gt;&lt;span style=&quot;background-color: initial;&quot;&gt;&amp;nbsp;&lt;/span&gt;string gerente&lt;/div&gt;&lt;div&gt;&lt;span style=&quot;background-color: initial;&quot;&gt;-&lt;/span&gt;&lt;span style=&quot;background-color: initial;&quot;&gt;&amp;nbsp;&lt;/span&gt;string region&lt;/div&gt;&lt;div&gt;&lt;span style=&quot;background-color: initial;&quot;&gt;-&lt;/span&gt;&lt;span style=&quot;background-color: initial;&quot;&gt;&amp;nbsp;&lt;/span&gt;double coordenadas[2]&amp;nbsp;&lt;/div&gt;&lt;div&gt;&lt;span style=&quot;background-color: initial;&quot;&gt;-&lt;/span&gt;&lt;span style=&quot;background-color: initial;&quot;&gt;&amp;nbsp;&lt;/span&gt;Tanque tanque&lt;/div&gt;&lt;div&gt;&lt;span style=&quot;background-color: initial;&quot;&gt;-&lt;/span&gt;&lt;span style=&quot;background-color: initial;&quot;&gt;&amp;nbsp;&lt;/span&gt;Surtidor** surtidores&lt;/div&gt;&lt;div&gt;&lt;span style=&quot;background-color: initial;&quot;&gt;-&lt;/span&gt;&lt;span style=&quot;background-color: initial;&quot;&gt;&amp;nbsp;&lt;/span&gt;int numSurtidores&lt;/div&gt;&lt;div&gt;&lt;span style=&quot;background-color: initial;&quot;&gt;-&lt;/span&gt;&lt;span style=&quot;background-color: initial;&quot;&gt;&amp;nbsp;&lt;/span&gt;int capacidadSurtidores&lt;/div&gt;&lt;div&gt;- int indicePrecios&lt;/div&gt;&lt;div&gt;-unsigned int contCodigoS;&lt;br&gt;&lt;/div&gt;&lt;div&gt;&lt;br&gt;&lt;/div&gt;" style="text;html=1;align=center;verticalAlign=middle;resizable=0;points=[];autosize=1;strokeColor=none;fillColor=none;" parent="zkfFHV4jXpPFQw0GAbJ--0" vertex="1">
          <mxGeometry y="26" width="779" height="190" as="geometry" />
        </mxCell>
        <mxCell id="zkfFHV4jXpPFQw0GAbJ--4" value="" style="line;html=1;strokeWidth=1;align=left;verticalAlign=middle;spacingTop=-1;spacingLeft=3;spacingRight=3;rotatable=0;labelPosition=right;points=[];portConstraint=eastwest;" parent="zkfFHV4jXpPFQw0GAbJ--0" vertex="1">
          <mxGeometry y="216" width="779" height="6" as="geometry" />
        </mxCell>
        <mxCell id="O1YSf6ZAfxsfMDEXohWQ-5" value="&lt;div&gt;+EstacionDeServicio(const string&amp;amp;, int, const string&amp;amp;, const string&amp;amp;, const double*)&lt;br&gt;+~EstacionDeServicio()&lt;br&gt;+string getNombre() const&lt;br&gt;+int getCodigoIdentificador() const&lt;br&gt;+string getGerente() const&lt;br&gt;+string getRegion() const&lt;br&gt;+const double* getCoordenadas() const&lt;br&gt;+const Tanque&amp;amp; getTanque() const&lt;br&gt;+Surtidor** getSurtidores() const&lt;br&gt;+int getSurtidoresActivos() const&lt;br&gt;+int getIndicePrecios() const&lt;br&gt;+int getNumSurtidores() const&lt;br&gt;+void listarSurtidores() const&lt;br&gt;+void setNombre(string&amp;amp;)&lt;br&gt;+void setCodigoIdentificador(int)&lt;br&gt;+void setGerente(string&amp;amp;)&lt;br&gt;+void setRegion(string&amp;amp;)&lt;br&gt;+void setCoordenadas(double*)&lt;br&gt;+void setTanque(Tanque&amp;amp;)&lt;br&gt;+void setIndicePrecios(int)&lt;br&gt;+void agregarSurtidor(int, string)&lt;br&gt;+void eliminarSurtidor(int)&lt;br&gt;+void activarDesactivarSurtidor(int, bool)&lt;br&gt;+void consultarHistoricoTransacciones(int) const&lt;br&gt;+void reportarLitrosVendidos() const&lt;br&gt;+void asignarCapacidadTanque()&lt;br&gt;+void simularVenta(const RedNacional&amp;amp;)&lt;br&gt;+void calcularVentas() const&lt;br&gt;+void verificarFugas() const&lt;br&gt;-void redimensionarSurtidores(int)&lt;br&gt;-int generarValorAleatorio(int, int) const&lt;br&gt;&lt;/div&gt;" style="text;html=1;align=center;verticalAlign=middle;resizable=0;points=[];autosize=1;strokeColor=none;fillColor=none;" parent="zkfFHV4jXpPFQw0GAbJ--0" vertex="1">
          <mxGeometry y="222" width="779" height="460" as="geometry" />
        </mxCell>
        <mxCell id="zkfFHV4jXpPFQw0GAbJ--17" value="Surtidor" style="swimlane;fontStyle=0;align=center;verticalAlign=top;childLayout=stackLayout;horizontal=1;startSize=26;horizontalStack=0;resizeParent=1;resizeLast=0;collapsible=1;marginBottom=0;rounded=0;shadow=0;strokeWidth=1;" parent="WIyWlLk6GJQsqaUBKTNV-1" vertex="1">
          <mxGeometry x="-2040" y="1578" width="410" height="312" as="geometry">
            <mxRectangle x="550" y="140" width="160" height="26" as="alternateBounds" />
          </mxGeometry>
        </mxCell>
        <mxCell id="39gTW1AYB2WTkjp2yQIk-11" value="&lt;div&gt;-private:&lt;br/&gt;-int codigo&lt;br/&gt;-string modelo&lt;br/&gt;-bool activo&lt;br/&gt;-Venta* ventas&lt;br/&gt;-int numVentas&lt;br/&gt;-int capacidadVentas&lt;br&gt;&lt;/div&gt;" style="text;html=1;align=center;verticalAlign=middle;resizable=0;points=[];autosize=1;strokeColor=none;fillColor=none;" parent="zkfFHV4jXpPFQw0GAbJ--17" vertex="1">
          <mxGeometry y="26" width="410" height="110" as="geometry" />
        </mxCell>
        <mxCell id="zkfFHV4jXpPFQw0GAbJ--23" value="" style="line;html=1;strokeWidth=1;align=left;verticalAlign=middle;spacingTop=-1;spacingLeft=3;spacingRight=3;rotatable=0;labelPosition=right;points=[];portConstraint=eastwest;" parent="zkfFHV4jXpPFQw0GAbJ--17" vertex="1">
          <mxGeometry y="136" width="410" height="6" as="geometry" />
        </mxCell>
        <mxCell id="O1YSf6ZAfxsfMDEXohWQ-3" value="&lt;div&gt;+Surtidor(int = 0, string = &quot;&quot;, bool = true, int = 2)&lt;br&gt;+~Surtidor()&lt;br&gt;+void activarDesactivar(bool)&lt;br&gt;+bool isActivo() const&lt;br&gt;+void registrarVenta(int, double, const string&amp;amp;, const string&amp;amp;, const string&amp;amp;)&lt;br&gt;+void redimensionarVentas()&lt;br&gt;+void mostrarHistoricoVentas() const&lt;br&gt;+int getNumVentas() const&lt;br&gt;+Venta* getVentas() const&lt;br&gt;+int getCodigo() const&lt;br&gt;+string getModelo() const&amp;nbsp;&lt;br&gt;&lt;/div&gt;" style="text;html=1;align=center;verticalAlign=middle;resizable=0;points=[];autosize=1;strokeColor=none;fillColor=none;" parent="zkfFHV4jXpPFQw0GAbJ--17" vertex="1">
          <mxGeometry y="142" width="410" height="170" as="geometry" />
        </mxCell>
        <mxCell id="wSoCLxQgXIOAvz-15-36-4" value="Venta" style="swimlane;fontStyle=2;align=center;verticalAlign=top;childLayout=stackLayout;horizontal=1;startSize=30;horizontalStack=0;resizeParent=1;resizeLast=0;collapsible=1;marginBottom=0;rounded=0;shadow=0;strokeWidth=1;" parent="WIyWlLk6GJQsqaUBKTNV-1" vertex="1">
          <mxGeometry x="-2090" y="1950" width="410" height="310" as="geometry">
            <mxRectangle x="230" y="140" width="160" height="26" as="alternateBounds" />
          </mxGeometry>
        </mxCell>
        <mxCell id="39gTW1AYB2WTkjp2yQIk-12" value="-string categoria&lt;br/&gt;-int litrosVendidos&lt;br/&gt;-int montoTotal&lt;br/&gt;-string metodoPago&lt;br/&gt;-string numeroDocumento&lt;br/&gt;-int fecha[3]&lt;br/&gt;-int hora[3]" style="text;html=1;align=center;verticalAlign=middle;resizable=0;points=[];autosize=1;strokeColor=none;fillColor=none;" parent="wSoCLxQgXIOAvz-15-36-4" vertex="1">
          <mxGeometry y="30" width="410" height="110" as="geometry" />
        </mxCell>
        <mxCell id="wSoCLxQgXIOAvz-15-36-33" value="" style="line;html=1;strokeWidth=1;align=left;verticalAlign=middle;spacingTop=-1;spacingLeft=3;spacingRight=3;rotatable=0;labelPosition=right;points=[];portConstraint=eastwest;" parent="wSoCLxQgXIOAvz-15-36-4" vertex="1">
          <mxGeometry y="140" width="410" height="10" as="geometry" />
        </mxCell>
        <mxCell id="O1YSf6ZAfxsfMDEXohWQ-6" value="&lt;div&gt;+Venta(string = &quot;&quot;, int = 0, int = 0, string = &quot;&quot;, string = &quot;&quot;)&lt;br/&gt;&lt;br/&gt;+void mostrarInfo() const&lt;br/&gt;+string getCategoria() const&lt;br/&gt;+double getLitrosVendidos() const&lt;br/&gt;+double getMontoTotal() const&lt;br/&gt;+int* getFecha() const&lt;br/&gt;+int* getHora() const&lt;br/&gt;+string getMetodoPago() const&lt;br/&gt;+string getNumeroDocumento() const&lt;br&gt;&lt;/div&gt;" style="text;html=1;align=center;verticalAlign=middle;resizable=0;points=[];autosize=1;strokeColor=none;fillColor=none;" parent="wSoCLxQgXIOAvz-15-36-4" vertex="1">
          <mxGeometry y="150" width="410" height="160" as="geometry" />
        </mxCell>
        <mxCell id="wSoCLxQgXIOAvz-15-36-13" style="rounded=0;orthogonalLoop=1;jettySize=auto;html=1;shape=arrow;dashed=1;strokeWidth=2;strokeColor=none;" parent="WIyWlLk6GJQsqaUBKTNV-1" source="wSoCLxQgXIOAvz-15-36-6" edge="1">
          <mxGeometry relative="1" as="geometry">
            <mxPoint x="-529" y="1812.4099999999999" as="targetPoint" />
          </mxGeometry>
        </mxCell>
        <mxCell id="wSoCLxQgXIOAvz-15-36-39" style="edgeStyle=orthogonalEdgeStyle;rounded=0;orthogonalLoop=1;jettySize=auto;html=1;" parent="WIyWlLk6GJQsqaUBKTNV-1" edge="1">
          <mxGeometry relative="1" as="geometry">
            <mxPoint x="-750" y="1742.4099999999999" as="targetPoint" />
            <mxPoint x="-629" y="1742.4099999999999" as="sourcePoint" />
          </mxGeometry>
        </mxCell>
        <mxCell id="wSoCLxQgXIOAvz-15-36-6" value="Tanque" style="swimlane;fontStyle=2;align=center;verticalAlign=top;childLayout=stackLayout;horizontal=1;startSize=26;horizontalStack=0;resizeParent=1;resizeLast=0;collapsible=1;marginBottom=0;rounded=0;shadow=0;strokeWidth=1;" parent="WIyWlLk6GJQsqaUBKTNV-1" vertex="1">
          <mxGeometry x="-630" y="1635" width="441" height="330" as="geometry">
            <mxRectangle x="230" y="140" width="160" height="26" as="alternateBounds" />
          </mxGeometry>
        </mxCell>
        <mxCell id="39gTW1AYB2WTkjp2yQIk-8" value="&lt;div&gt;&lt;pre class=&quot;!overflow-visible&quot;&gt;&lt;div class=&quot;dark bg-gray-950 contain-inline-size rounded-md border-[0.5px] border-token-border-medium relative&quot;&gt;&lt;div dir=&quot;ltr&quot; class=&quot;overflow-y-auto p-4&quot;&gt;&lt;code class=&quot;!whitespace-pre hljs language-plaintext&quot;&gt;&lt;font face=&quot;Helvetica&quot;&gt;-int capacidadTotalRegular&lt;br&gt;-int capacidadTotalPremium&lt;br&gt;-int capacidadTotalEcoExtra&lt;br&gt;-int gasolinaDisponibleRegular&lt;br&gt;-int gasolinaDisponiblePremium&lt;br&gt;-int gasolinaDisponibleEcoExtra&lt;/font&gt;&lt;br&gt;&lt;/code&gt;&lt;/div&gt;&lt;/div&gt;&lt;/pre&gt;&lt;p&gt;&lt;/p&gt;&lt;/div&gt;" style="text;html=1;align=center;verticalAlign=middle;resizable=0;points=[];autosize=1;strokeColor=none;fillColor=none;" parent="wSoCLxQgXIOAvz-15-36-6" vertex="1">
          <mxGeometry y="26" width="441" height="130" as="geometry" />
        </mxCell>
        <mxCell id="wSoCLxQgXIOAvz-15-36-7" value="" style="line;html=1;strokeWidth=1;align=left;verticalAlign=middle;spacingTop=-1;spacingLeft=3;spacingRight=3;rotatable=0;labelPosition=right;points=[];portConstraint=eastwest;" parent="wSoCLxQgXIOAvz-15-36-6" vertex="1">
          <mxGeometry y="156" width="441" height="4" as="geometry" />
        </mxCell>
        <mxCell id="O1YSf6ZAfxsfMDEXohWQ-4" value="&lt;div&gt;&lt;div&gt;+Tanque()&lt;br&gt;+int getCapacidadTotalRegular() const&lt;br&gt;+int getCapacidadTotalPremium() const&lt;br&gt;+int getCapacidadTotalEcoExtra() const&lt;br&gt;+int getGasolinaDisponibleRegular() const&lt;br&gt;+int getGasolinaDisponiblePremium() const&lt;br&gt;+int getGasolinaDisponibleEcoExtra() const&lt;br&gt;+unsigned int reducirGasolina(unsigned int, const string&amp;amp;)&lt;br&gt;+void restablecerTanque()&lt;br&gt;+void mostrarInfo() const&lt;br&gt;+void asignarCapacidad(double, const string&amp;amp;)&amp;nbsp;&lt;br&gt;&lt;/div&gt;&lt;/div&gt;" style="text;html=1;align=center;verticalAlign=middle;resizable=0;points=[];autosize=1;strokeColor=none;fillColor=none;" parent="wSoCLxQgXIOAvz-15-36-6" vertex="1">
          <mxGeometry y="160" width="441" height="170" as="geometry" />
        </mxCell>
        <mxCell id="wSoCLxQgXIOAvz-15-36-8" value="RedNacional" style="swimlane;fontStyle=2;align=center;verticalAlign=top;childLayout=stackLayout;horizontal=1;startSize=26;horizontalStack=0;resizeParent=1;resizeLast=0;collapsible=1;marginBottom=0;rounded=0;shadow=0;strokeWidth=1;perimeterSpacing=0;gradientColor=none;fillColor=default;fillStyle=auto;" parent="WIyWlLk6GJQsqaUBKTNV-1" vertex="1">
          <mxGeometry x="-1615.23" y="1100" width="453" height="350" as="geometry">
            <mxRectangle x="230" y="140" width="160" height="26" as="alternateBounds" />
          </mxGeometry>
        </mxCell>
        <mxCell id="39gTW1AYB2WTkjp2yQIk-4" value="&lt;br&gt;-EstacionDeServicio** estaciones&lt;br&gt;-int numEstaciones&lt;br&gt;-int capacidad&lt;br&gt;-double precios[3][3]&lt;div&gt;-unsigned int contCodigoES&lt;/div&gt;" style="text;html=1;align=center;verticalAlign=middle;resizable=0;points=[];autosize=1;strokeColor=none;fillColor=none;" parent="wSoCLxQgXIOAvz-15-36-8" vertex="1">
          <mxGeometry y="26" width="453" height="100" as="geometry" />
        </mxCell>
        <mxCell id="wSoCLxQgXIOAvz-15-36-38" value="" style="line;html=1;strokeWidth=1;align=left;verticalAlign=middle;spacingTop=-1;spacingLeft=3;spacingRight=3;rotatable=0;labelPosition=right;points=[];portConstraint=eastwest;perimeterSpacing=0;gradientColor=none;fillColor=default;fillStyle=auto;" parent="wSoCLxQgXIOAvz-15-36-8" vertex="1">
          <mxGeometry y="126" width="453" height="4" as="geometry" />
        </mxCell>
        <mxCell id="O1YSf6ZAfxsfMDEXohWQ-21" value="&lt;div&gt;&lt;span class=&quot;hljs-function&quot;&gt;&lt;span class=&quot;hljs-type&quot;&gt;+RedNacional()&lt;br&gt;+~RedNacional()&lt;br&gt;+EstacionDeServicio* buscarEstacionPorCodigo(int) const&lt;br&gt;+void listarEstaciones() const&lt;br&gt;+void agregarEstacion(const string&amp;amp;, const string&amp;amp;, const string&amp;amp;, const double*)&lt;br&gt;+double getPrecio(int, int) const&lt;br&gt;+void eliminarEstacion(int)&lt;br&gt;+void calcularVentasPorEstacion() const&lt;br&gt;+void fijarPreciosPorRegion(const string&amp;amp;, double, double, double)&lt;br&gt;+int getNumEstaciones() const&lt;br&gt;+EstacionDeServicio** getEstaciones() const&amp;nbsp;&lt;br&gt;&lt;/span&gt;&lt;/span&gt;&lt;/div&gt;&lt;div&gt;&lt;span class=&quot;hljs-function&quot;&gt;&lt;span class=&quot;hljs-type&quot;&gt;-void redimensionar(int)&lt;br&gt;-int getIndiceRegion(const string&amp;amp;) const&lt;br&gt;&lt;/span&gt;&lt;/span&gt;&lt;/div&gt;&lt;div&gt;&lt;span class=&quot;hljs-function&quot;&gt;&lt;span class=&quot;hljs-type&quot;&gt;&lt;br&gt;&lt;/span&gt;&lt;/span&gt;&lt;/div&gt;" style="text;html=1;align=center;verticalAlign=middle;resizable=0;points=[];autosize=1;strokeColor=none;fillColor=none;" parent="wSoCLxQgXIOAvz-15-36-8" vertex="1">
          <mxGeometry y="130" width="453" height="220" as="geometry" />
        </mxCell>
        <mxCell id="wSoCLxQgXIOAvz-15-36-40" value="" style="rhombus;whiteSpace=wrap;html=1;" parent="WIyWlLk6GJQsqaUBKTNV-1" vertex="1">
          <mxGeometry x="-749" y="1727.4099999999999" width="30" height="30" as="geometry" />
        </mxCell>
        <mxCell id="wSoCLxQgXIOAvz-15-36-57" style="edgeStyle=orthogonalEdgeStyle;rounded=0;orthogonalLoop=1;jettySize=auto;html=1;strokeColor=none;" parent="WIyWlLk6GJQsqaUBKTNV-1" target="zkfFHV4jXpPFQw0GAbJ--23" edge="1">
          <mxGeometry relative="1" as="geometry">
            <mxPoint x="-1567.18" y="1688" as="sourcePoint" />
          </mxGeometry>
        </mxCell>
        <mxCell id="wSoCLxQgXIOAvz-15-36-63" value="" style="endArrow=classic;html=1;rounded=0;entryX=1;entryY=0.5;entryDx=0;entryDy=0;" parent="WIyWlLk6GJQsqaUBKTNV-1" target="wSoCLxQgXIOAvz-15-36-62" edge="1">
          <mxGeometry width="50" height="50" relative="1" as="geometry">
            <mxPoint x="-1630" y="1688" as="sourcePoint" />
            <mxPoint x="-1537.18" y="1688" as="targetPoint" />
          </mxGeometry>
        </mxCell>
        <mxCell id="wSoCLxQgXIOAvz-15-36-62" value="" style="rhombus;whiteSpace=wrap;html=1;" parent="WIyWlLk6GJQsqaUBKTNV-1" vertex="1">
          <mxGeometry x="-1560" y="1673" width="30" height="30" as="geometry" />
        </mxCell>
        <mxCell id="39gTW1AYB2WTkjp2yQIk-9" value="" style="endArrow=classic;html=1;rounded=0;entryX=0.5;entryY=0;entryDx=0;entryDy=0;" parent="WIyWlLk6GJQsqaUBKTNV-1" edge="1">
          <mxGeometry width="50" height="50" relative="1" as="geometry">
            <mxPoint x="-1882.37" y="1950" as="sourcePoint" />
            <mxPoint x="-1880.46" y="1890" as="targetPoint" />
            <Array as="points" />
          </mxGeometry>
        </mxCell>
        <mxCell id="39gTW1AYB2WTkjp2yQIk-10" value="" style="rhombus;whiteSpace=wrap;html=1;" parent="WIyWlLk6GJQsqaUBKTNV-1" vertex="1">
          <mxGeometry x="-1895.46" y="1890" width="30" height="30" as="geometry" />
        </mxCell>
        <mxCell id="O1YSf6ZAfxsfMDEXohWQ-14" value="" style="rhombus;whiteSpace=wrap;html=1;" parent="WIyWlLk6GJQsqaUBKTNV-1" vertex="1">
          <mxGeometry x="-1417" y="1440" width="40" height="30" as="geometry" />
        </mxCell>
        <mxCell id="lpN7cBp6DipuNw5dxFbk-3" value="1" style="text;html=1;align=center;verticalAlign=middle;resizable=0;points=[];autosize=1;strokeColor=none;fillColor=none;" parent="WIyWlLk6GJQsqaUBKTNV-1" vertex="1">
          <mxGeometry x="-660" y="1719" width="30" height="30" as="geometry" />
        </mxCell>
        <mxCell id="lpN7cBp6DipuNw5dxFbk-4" value="1" style="text;html=1;align=center;verticalAlign=middle;resizable=0;points=[];autosize=1;strokeColor=none;fillColor=none;" parent="WIyWlLk6GJQsqaUBKTNV-1" vertex="1">
          <mxGeometry x="-749" y="1703" width="30" height="30" as="geometry" />
        </mxCell>
        <mxCell id="lpN7cBp6DipuNw5dxFbk-5" value="1" style="text;html=1;align=center;verticalAlign=middle;resizable=0;points=[];autosize=1;strokeColor=none;fillColor=none;" parent="WIyWlLk6GJQsqaUBKTNV-1" vertex="1">
          <mxGeometry x="-1375" y="1438" width="30" height="30" as="geometry" />
        </mxCell>
        <mxCell id="lpN7cBp6DipuNw5dxFbk-6" value="K" style="text;html=1;align=center;verticalAlign=middle;resizable=0;points=[];autosize=1;strokeColor=none;fillColor=none;" parent="WIyWlLk6GJQsqaUBKTNV-1" vertex="1">
          <mxGeometry x="-1135" y="1536" width="30" height="30" as="geometry" />
        </mxCell>
        <mxCell id="lpN7cBp6DipuNw5dxFbk-7" value="1" style="text;html=1;align=center;verticalAlign=middle;resizable=0;points=[];autosize=1;strokeColor=none;fillColor=none;" parent="WIyWlLk6GJQsqaUBKTNV-1" vertex="1">
          <mxGeometry x="-1560" y="1648" width="30" height="30" as="geometry" />
        </mxCell>
        <mxCell id="lpN7cBp6DipuNw5dxFbk-8" value="N" style="text;html=1;align=center;verticalAlign=middle;resizable=0;points=[];autosize=1;strokeColor=none;fillColor=none;" parent="WIyWlLk6GJQsqaUBKTNV-1" vertex="1">
          <mxGeometry x="-1630" y="1658" width="30" height="30" as="geometry" />
        </mxCell>
        <mxCell id="lpN7cBp6DipuNw5dxFbk-9" value="1" style="text;html=1;align=center;verticalAlign=middle;resizable=0;points=[];autosize=1;strokeColor=none;fillColor=none;" parent="WIyWlLk6GJQsqaUBKTNV-1" vertex="1">
          <mxGeometry x="-1865.46" y="1890" width="30" height="30" as="geometry" />
        </mxCell>
        <mxCell id="lpN7cBp6DipuNw5dxFbk-10" value="M" style="text;html=1;align=center;verticalAlign=middle;resizable=0;points=[];autosize=1;strokeColor=none;fillColor=none;" parent="WIyWlLk6GJQsqaUBKTNV-1" vertex="1">
          <mxGeometry x="-1885" y="1928" width="30" height="30" as="geometry" />
        </mxCell>
        <mxCell id="lpN7cBp6DipuNw5dxFbk-15" value="&lt;h1 style=&quot;text-align: left; margin-top: 0px;&quot;&gt;PARA TODO K,N,M &amp;gt;= 0&lt;/h1&gt;" style="shape=parallelogram;perimeter=parallelogramPerimeter;whiteSpace=wrap;html=1;fixedSize=1;" parent="WIyWlLk6GJQsqaUBKTNV-1" vertex="1">
          <mxGeometry x="-2120" y="1340" width="320" height="60" as="geometry" />
        </mxCell>
      </root>
    </mxGraphModel>
  </diagram>
</mxfile>
